<?xml version="1.0" encoding="UTF-8" standalone="no"?>
<!-- Generator: Adobe Illustrator 19.0.0, SVG Export Plug-In . SVG Version: 6.00 Build 0)  -->

<svg
   xmlns:osb="http://www.openswatchbook.org/uri/2009/osb"
   xmlns:dc="http://purl.org/dc/elements/1.1/"
   xmlns:cc="http://creativecommons.org/ns#"
   xmlns:rdf="http://www.w3.org/1999/02/22-rdf-syntax-ns#"
   xmlns:svg="http://www.w3.org/2000/svg"
   xmlns="http://www.w3.org/2000/svg"
   xmlns:sodipodi="http://sodipodi.sourceforge.net/DTD/sodipodi-0.dtd"
   xmlns:inkscape="http://www.inkscape.org/namespaces/inkscape"
   version="1.1"
   id="Layer_1"
   x="0px"
   y="0px"
   viewBox="0 0 526.37625 495.80887"
   xml:space="preserve"
   width="526.37317"
   height="495.80597"
   sodipodi:docname="handshake.svg"
   inkscape:version="0.92.1 r15371"><metadata
     id="metadata886"><rdf:RDF><cc:Work
         rdf:about=""><dc:format>image/svg+xml</dc:format><dc:type
           rdf:resource="http://purl.org/dc/dcmitype/StillImage" /><dc:title /></cc:Work></rdf:RDF></metadata><defs
     id="defs884"><linearGradient
       id="linearGradient2432"
       osb:paint="solid"><stop
         style="stop-color:#00ff00;stop-opacity:0;"
         offset="0"
         id="stop2430" /></linearGradient><linearGradient
       id="linearGradient2348"
       osb:paint="solid"><stop
         style="stop-color:#00ff00;stop-opacity:1;"
         offset="0"
         id="stop2346" /></linearGradient><linearGradient
       id="linearGradient894"
       osb:paint="solid"><stop
         style="stop-color:#00ff00;stop-opacity:1;"
         offset="0"
         id="stop892" /></linearGradient></defs><sodipodi:namedview
     pagecolor="#ffffff"
     bordercolor="#666666"
     borderopacity="1"
     objecttolerance="10"
     gridtolerance="10"
     guidetolerance="10"
     inkscape:pageopacity="0"
     inkscape:pageshadow="2"
     inkscape:window-width="1366"
     inkscape:window-height="705"
     id="namedview882"
     showgrid="false"
     inkscape:zoom="1.046875"
     inkscape:cx="121.65174"
     inkscape:cy="209.3794"
     inkscape:window-x="-8"
     inkscape:window-y="-8"
     inkscape:window-maximized="1"
     inkscape:current-layer="Layer_1" /><g
     id="g837"
     transform="translate(5.2761725,26.291186)"
     style="opacity:0.5"><g
       id="g835"><path
         d="m 509.605,171.075 -99.3,-99.301 c -3.193,-3.194 -8.37,-3.194 -11.565,0 l -49.65,49.65 c -1.533,1.533 -2.394,3.613 -2.394,5.782 0,2.169 0.861,4.249 2.394,5.782 l 4.953,4.953 -11.382,11.38 c -7.389,7.386 -18.854,9.402 -28.528,5.011 -9.07,-4.117 -19.153,-6.292 -29.161,-6.292 -11.883,0 -23.496,2.983 -33.814,8.633 -4.303,-1.06 -8.719,-1.603 -13.179,-1.603 -6.45,0 -12.785,1.113 -18.829,3.31 -9.651,3.506 -19.996,1.333 -27.003,-5.672 l -20.437,-20.438 2.434,-2.434 c 1.533,-1.533 2.394,-3.613 2.394,-5.782 0,-2.169 -0.861,-4.249 -2.394,-5.782 l -49.65,-49.65 c -3.195,-3.194 -8.371,-3.194 -11.565,0 L 2.395,179.156 c -3.193,3.194 -3.193,8.371 0,11.564 l 49.649,49.65 c 1.534,1.534 3.613,2.395 5.783,2.395 2.17,0 4.248,-0.861 5.783,-2.395 l 2.961,-2.961 14.414,14.414 c 3.637,3.637 6.048,8.178 6.971,13.131 4.786,25.683 17.086,49.032 35.57,67.526 l 2.715,2.715 c -5.214,5.491 -8.082,12.645 -8.082,20.245 0,7.861 3.062,15.252 8.62,20.811 5.738,5.738 13.273,8.606 20.811,8.606 0.491,0 0.98,-0.013 1.471,-0.038 -0.398,8.019 2.458,16.17 8.568,22.282 5.559,5.559 12.95,8.62 20.811,8.62 0.219,0 0.437,-0.011 0.656,-0.016 -0.168,7.749 2.691,15.552 8.591,21.453 5.559,5.56 12.95,8.62 20.812,8.62 7.861,0 15.251,-3.062 20.811,-8.62 0.468,-0.468 0.909,-0.952 1.34,-1.442 2.895,1.009 5.957,1.546 9.052,1.546 7.353,0 14.261,-2.865 19.441,-8.062 2.757,-2.756 4.849,-5.998 6.211,-9.529 l 0.837,0.837 c 5.359,5.359 12.398,8.039 19.437,8.039 7.039,0 14.078,-2.68 19.437,-8.039 2.848,-2.848 4.988,-6.211 6.344,-9.878 4.797,3.489 10.476,5.236 16.158,5.236 7.039,0 14.082,-2.679 19.446,-8.036 5.191,-5.191 8.05,-12.097 8.05,-19.445 0,-2.22 -0.266,-4.397 -0.773,-6.502 5.237,-1.064 10.049,-3.635 13.91,-7.501 5.191,-5.191 8.05,-12.094 8.05,-19.437 0,-5.785 -1.782,-11.292 -5.073,-15.91 l 6.56,-6.56 c 18.699,-18.708 31.052,-42.35 35.725,-68.371 0.783,-4.357 2.941,-8.404 6.243,-11.707 l 24.398,-24.398 4.289,4.289 c 1.597,1.597 3.69,2.395 5.783,2.395 2.092,0 4.186,-0.798 5.783,-2.395 l 49.65,-49.65 c 1.533,-1.533 2.394,-3.613 2.394,-5.782 0,-2.169 -0.864,-4.247 -2.397,-5.781 z M 57.827,223.025 19.741,184.939 118.71,85.97 l 38.087,38.086 z m 99.009,141.664 c -5.097,5.096 -13.392,5.098 -18.493,0 -2.47,-2.471 -3.83,-5.754 -3.83,-9.247 0,-3.492 1.361,-6.776 3.831,-9.246 2.549,-2.549 5.896,-3.824 9.245,-3.824 3.348,0 6.698,1.275 9.246,3.824 5.098,5.098 5.098,13.394 0.001,18.493 z m 30.848,30.848 c -2.468,2.471 -5.751,3.83 -9.246,3.83 -3.492,0 -6.776,-1.361 -9.245,-3.83 -5.099,-5.098 -5.099,-13.394 0,-18.493 2.549,-2.549 5.896,-3.824 9.246,-3.824 3.347,0 6.697,1.275 9.245,3.824 5.1,5.098 5.1,13.395 0,18.493 z m 30.058,30.057 c -2.47,2.47 -5.753,3.83 -9.245,3.83 -3.493,0 -6.777,-1.361 -9.246,-3.83 -5.099,-5.098 -5.099,-13.394 0,-18.493 2.549,-2.549 5.896,-3.824 9.246,-3.824 3.347,0 6.697,1.275 9.245,3.824 5.099,5.099 5.099,13.395 0,18.493 z M 356.63,362.822 c -2.102,2.104 -4.897,3.263 -7.869,3.263 -2.972,0 -5.767,-1.159 -7.873,-3.268 l -79.33,-79.312 c -3.196,-3.193 -8.372,-3.192 -11.565,0.002 -3.192,3.193 -3.191,8.371 0.002,11.564 l 85.451,85.442 c 2.103,2.102 3.26,4.898 3.26,7.872 0,2.98 -1.158,5.779 -3.257,7.878 -4.347,4.343 -11.416,4.344 -15.756,0.003 L 305.277,381.85 c -0.08,-0.083 -0.158,-0.167 -0.241,-0.249 -0.024,-0.024 -0.051,-0.045 -0.076,-0.069 l -66.267,-66.267 c -3.195,-3.193 -8.371,-3.193 -11.565,0 -3.194,3.193 -3.194,8.371 0,11.564 l 66.48,66.479 c 2.032,2.083 3.151,4.839 3.151,7.763 0,2.974 -1.159,5.77 -3.261,7.872 -4.338,4.341 -11.401,4.341 -15.743,0 L 205.67,336.857 c -3.195,-3.194 -8.371,-3.194 -11.565,0 -3.194,3.193 -3.194,8.371 0,11.564 l 53.434,53.435 c 0.015,0.015 0.027,0.032 0.043,0.046 2.101,2.097 3.257,4.888 3.257,7.859 0,2.973 -1.158,5.769 -3.269,7.88 -2.099,2.104 -4.893,3.263 -7.87,3.263 -0.719,0 -1.422,-0.074 -2.11,-0.204 1.323,-8.913 -1.436,-18.32 -8.282,-25.167 -5.559,-5.558 -12.95,-8.62 -20.811,-8.62 -0.219,0 -0.437,0.011 -0.656,0.016 0.168,-7.749 -2.69,-15.552 -8.591,-21.453 -5.56,-5.558 -12.95,-8.62 -20.812,-8.62 -0.492,0 -0.981,0.012 -1.469,0.036 0.393,-8.014 -2.463,-16.158 -8.57,-22.266 -7.434,-7.433 -17.884,-10.044 -27.444,-7.847 l -5.864,-5.864 c -16.14,-16.147 -26.878,-36.535 -31.057,-58.96 -1.531,-8.213 -5.502,-15.717 -11.483,-21.699 l -14.415,-14.415 82.01,-82.01 20.438,20.438 c 7.856,7.856 18.552,12.06 29.507,12.06 4.906,0 9.867,-0.844 14.646,-2.581 2.318,-0.843 4.715,-1.448 7.144,-1.832 l -50.632,50.633 c -6.195,6.194 -9.607,14.43 -9.607,23.191 0,8.76 3.412,16.996 9.606,23.19 6.394,6.394 14.79,9.59 23.19,9.589 8.398,0 16.797,-3.198 23.192,-9.589 l 25.43,-25.43 6.883,6.888 c 0.002,0.002 0.003,0.003 0.005,0.005 l 0.286,0.286 0.275,0.275 c 10e-4,0.001 0.003,0.003 0.005,0.004 l 0.005,0.005 c 0.079,0.078 0.156,0.152 0.233,0.226 l 95.881,95.881 c 2.103,2.102 3.26,4.898 3.26,7.872 0,2.979 -1.157,5.775 -3.263,7.88 z m 51.507,-121.988 c -5.674,5.675 -9.4,12.723 -10.774,20.381 -4.08,22.72 -14.867,43.364 -31.193,59.698 l -6.284,6.285 -51.731,-51.731 c 1.124,0.083 2.253,0.138 3.39,0.138 5.238,0 10.598,-0.918 15.934,-3.101 4.18,-1.71 6.182,-6.485 4.472,-10.664 -1.71,-4.179 -6.481,-6.182 -10.664,-4.472 -21.046,8.611 -46.278,-15.12 -49.087,-17.855 -0.047,-0.046 -0.094,-0.091 -0.142,-0.135 l -0.29,-0.29 c -10e-4,-0.001 -0.002,-0.001 -0.003,-0.002 l -0.253,-0.252 c -10e-4,-0.001 -0.003,-0.003 -0.005,-0.004 l -6.884,-6.889 7.806,-7.807 c 3.195,-3.194 3.195,-8.371 0.001,-11.565 -3.194,-3.192 -8.371,-3.193 -11.564,0 l -13.57,13.57 c -0.005,0.005 -0.011,0.01 -0.016,0.015 -0.005,0.005 -0.01,0.011 -0.015,0.016 l -31.2,31.2 c -6.412,6.411 -16.842,6.409 -23.252,0 -3.105,-3.105 -4.815,-7.234 -4.815,-11.626 0,-4.392 1.71,-8.521 4.816,-11.626 l 53.852,-53.854 c 2.996,-2.995 6.326,-5.63 9.905,-7.837 8.503,-5.256 18.324,-8.034 28.401,-8.034 7.693,0 15.439,1.67 22.403,4.831 15.842,7.188 34.671,3.839 46.851,-8.338 l 11.383,-11.381 66.929,66.929 z m 46.035,-25.89 -87.736,-87.736 38.087,-38.086 87.736,87.736 z"
         id="path833"
         inkscape:connector-curvature="0"
         style="fill:#00466a" /></g></g><g
     id="g843"
     style="opacity:0.5"
     transform="translate(11.962779,33.933022)"><g
       id="g841"><circle
         cx="462.41"
         cy="183.11"
         r="8.177"
         id="circle839"
         style="fill:#00466a" /></g></g><g
     id="g849"
     style="opacity:0.7"
     transform="translate(18.649385,38.709169)"><g
       id="g847"><circle
         cx="53.567001"
         cy="191.189"
         r="8.177"
         id="circle845"
         style="fill:#00466a" /></g></g><g
     id="g851"
     transform="translate(18.649385,38.709169)" /><g
     id="g853"
     transform="translate(18.649385,38.709169)" /><g
     id="g855"
     transform="translate(18.649385,38.709169)" /><g
     id="g857"
     transform="translate(18.649385,38.709169)" /><g
     id="g859"
     transform="translate(18.649385,38.709169)" /><g
     id="g861"
     transform="translate(18.649385,38.709169)" /><g
     id="g863"
     transform="translate(18.649385,38.709169)" /><g
     id="g865"
     transform="translate(18.649385,38.709169)" /><g
     id="g867"
     transform="translate(18.649385,38.709169)" /><g
     id="g869"
     transform="translate(18.649385,38.709169)" /><g
     id="g871"
     transform="translate(18.649385,38.709169)" /><g
     id="g873"
     transform="translate(18.649385,38.709169)" /><g
     id="g875"
     transform="translate(18.649385,38.709169)" /><g
     id="g877"
     transform="translate(18.649385,38.709169)" /><g
     id="g879"
     transform="translate(18.649385,38.709169)" /><ellipse
     style="opacity:0.5;fill:#8cdb8c;fill-opacity:0;stroke:#00466a;stroke-width:13.10516739;stroke-opacity:1"
     id="path888"
     cx="263.18811"
     cy="247.90443"
     rx="256.63553"
     ry="241.35185" /></svg>