<?xml version="1.0" encoding="UTF-8" standalone="no"?>
<!-- Created with Inkscape (http://www.inkscape.org/) -->

<svg
   xmlns:dc="http://purl.org/dc/elements/1.1/"
   xmlns:cc="http://creativecommons.org/ns#"
   xmlns:rdf="http://www.w3.org/1999/02/22-rdf-syntax-ns#"
   xmlns:svg="http://www.w3.org/2000/svg"
   xmlns="http://www.w3.org/2000/svg"
   xmlns:sodipodi="http://sodipodi.sourceforge.net/DTD/sodipodi-0.dtd"
   xmlns:inkscape="http://www.inkscape.org/namespaces/inkscape"
   width="455.49774mm"
   height="440.34482mm"
   viewBox="0 0 455.49775 440.34482"
   version="1.1"
   id="svg8"
   inkscape:version="0.92.1 r15371"
   sodipodi:docname="missionbg.svg">
  <defs
     id="defs2" />
  <sodipodi:namedview
     id="base"
     pagecolor="#ffffff"
     bordercolor="#666666"
     borderopacity="1.0"
     inkscape:pageopacity="0.0"
     inkscape:pageshadow="2"
     inkscape:zoom="0.35"
     inkscape:cx="72.612792"
     inkscape:cy="39.402359"
     inkscape:document-units="mm"
     inkscape:current-layer="g4588"
     showgrid="false"
     inkscape:window-width="1366"
     inkscape:window-height="705"
     inkscape:window-x="-8"
     inkscape:window-y="-8"
     inkscape:window-maximized="1" />
  <metadata
     id="metadata5">
    <rdf:RDF>
      <cc:Work
         rdf:about="">
        <dc:format>image/svg+xml</dc:format>
        <dc:type
           rdf:resource="http://purl.org/dc/dcmitype/StillImage" />
        <dc:title></dc:title>
      </cc:Work>
    </rdf:RDF>
  </metadata>
  <g
     inkscape:label="Layer 1"
     inkscape:groupmode="layer"
     id="layer1"
     transform="translate(168.86817,74.178069)">
    <g
       id="g4588"
       transform="matrix(2.3507326,0,0,2.3376877,88.660981,-2.0559286)"
       style="opacity:0.5">
      <g
         id="g4517"
         transform="matrix(1.5217374,0,0,1.3718371,-3.9689782,-30.946571)">
        <path
           id="path4485"
           d="m 29.975,27.985 h 11.972 c -0.123,-4.348 -1.033,-8.567 -2.664,-12.477 -3.01,0.874 -6.131,1.355 -9.308,1.44 z"
           inkscape:connector-curvature="0"
           style="fill:#0466a4" />
        <path
           id="path4487"
           d="m 40.384,13.057 c 2.928,-1.01 5.731,-2.392 8.328,-4.169 l 0.653,-0.5 C 44.588,3.658 38.18,0.58 31.071,0.069 L 30.553,0.49 c 4.214,3.489 7.546,7.778 9.831,12.567 z"
           inkscape:connector-curvature="0"
           style="fill:#0466a4" />
        <path
           id="path4489"
           d="m 29.975,2.628 v 12.32 c 2.891,-0.082 5.731,-0.513 8.473,-1.283 C 36.421,9.505 33.557,5.753 29.975,2.628 Z"
           inkscape:connector-curvature="0"
           style="fill:#0466a4" />
        <path
           id="path4491"
           d="m 41.531,42.202 c 3.13,1.132 6.12,2.668 8.885,4.639 l 0.868,0.65 C 55.26,42.706 57.723,36.625 57.949,29.986 H 43.947 c -0.113,4.238 -0.941,8.357 -2.416,12.216 z"
           inkscape:connector-curvature="0"
           style="fill:#0466a4" />
        <path
           id="path4493"
           d="m 9.237,8.888 c 2.597,1.777 5.401,3.158 8.328,4.169 C 19.85,8.269 23.182,3.98 27.397,0.49 L 26.879,0.069 C 19.754,0.581 13.332,3.672 8.551,8.419 Z"
           inkscape:connector-curvature="0"
           style="fill:#0466a4" />
        <path
           id="path4495"
           d="m 27.975,2.628 c -3.583,3.125 -6.446,6.878 -8.473,11.036 2.742,0.77 5.582,1.202 8.473,1.283 z"
           inkscape:connector-curvature="0"
           style="fill:#0466a4" />
        <path
           id="path4497"
           d="M 14.003,29.985 H 0 c 0.227,6.639 2.689,12.719 6.665,17.505 l 0.85,-0.635 c 2.775,-1.977 5.771,-3.518 8.906,-4.652 -1.478,-3.862 -2.305,-7.981 -2.418,-12.218 z"
           inkscape:connector-curvature="0"
           style="fill:#0466a4" />
        <path
           id="path4499"
           d="M 16.752,14.89 C 13.715,13.826 10.807,12.385 8.108,10.539 L 7.17,9.897 C 2.901,14.768 0.236,21.072 0,27.985 h 14.003 c 0.121,-4.56 1.058,-8.988 2.749,-13.095 z"
           inkscape:connector-curvature="0"
           style="fill:#0466a4" />
        <path
           id="path4501"
           d="M 16.003,27.985 H 27.975 V 16.948 c -3.179,-0.085 -6.301,-0.566 -9.309,-1.438 -1.631,3.909 -2.541,8.127 -2.663,12.475 z"
           inkscape:connector-curvature="0"
           style="fill:#0466a4" />
        <path
           id="path4503"
           d="M 27.297,57.391 C 22.878,53.696 19.456,49.132 17.186,44.05 c -2.992,1.074 -5.851,2.538 -8.492,4.42 l -0.689,0.515 c 4.774,5.003 11.31,8.304 18.605,8.896 z"
           inkscape:connector-curvature="0"
           style="fill:#0466a4" />
        <path
           id="path4505"
           d="M 27.975,40.023 V 29.985 H 16.003 c 0.113,4.019 0.905,7.924 2.313,11.58 3.113,-0.938 6.353,-1.454 9.659,-1.542 z"
           inkscape:connector-curvature="0"
           style="fill:#0466a4" />
        <path
           id="path4507"
           d="m 49.236,48.456 c -2.631,-1.875 -5.482,-3.335 -8.469,-4.406 -2.272,5.094 -5.698,9.662 -10.113,13.344 l 0.685,0.487 c 7.295,-0.592 13.832,-3.892 18.606,-8.895 z"
           inkscape:connector-curvature="0"
           style="fill:#0466a4" />
        <path
           id="path4509"
           d="m 49.885,10.507 c -2.72,1.862 -5.643,3.311 -8.689,4.38 1.692,4.108 2.629,8.537 2.751,13.098 H 57.95 C 57.713,21.05 55.033,14.729 50.741,9.852 Z"
           inkscape:connector-curvature="0"
           style="fill:#0466a4" />
        <path
           id="path4511"
           d="M 27.975,55.342 V 42.023 c -3.039,0.085 -6.016,0.556 -8.882,1.4 2.043,4.509 5.048,8.575 8.882,11.919 z"
           inkscape:connector-curvature="0"
           style="fill:#0466a4" />
        <path
           id="path4513"
           d="M 41.947,29.985 H 29.975 v 10.038 c 3.307,0.088 6.548,0.604 9.662,1.542 1.404,-3.655 2.196,-7.56 2.31,-11.58 z"
           inkscape:connector-curvature="0"
           style="fill:#0466a4" />
        <path
           id="path4515"
           d="m 38.86,43.423 c -2.866,-0.844 -5.845,-1.314 -8.885,-1.4 v 13.323 c 3.831,-3.333 6.839,-7.403 8.885,-11.923 z"
           inkscape:connector-curvature="0"
           style="fill:#0466a4" />
      </g>
      <g
         id="g4519" />
      <g
         id="g4521" />
      <g
         id="g4523" />
      <g
         id="g4525" />
      <g
         id="g4527" />
      <g
         id="g4529" />
      <g
         id="g4531" />
      <g
         id="g4533" />
      <g
         id="g4535" />
      <g
         id="g4537" />
      <g
         id="g4539" />
      <g
         id="g4541" />
      <g
         id="g4543" />
      <g
         id="g4545" />
      <g
         id="g4547" />
      <g
         id="g4774"
         transform="matrix(0.15901539,0,0,0.1056362,-16.000389,47.340005)">
        <g
           id="g4718">
          <path
             id="path4716"
             d="m 512,480 v 32 H 0 V 0 H 32 V 480 Z M 228.906,177.719 359.625,210.375 404.875,135 l 41,24.625 L 448,32 336.406,93.938 l 41,24.625 -33.031,55.063 -125.281,-31.344 -134.406,134.406 22.625,22.625 z M 192,448 h 64 V 217.469 L 238.719,213.157 192,259.875 Z M 96,333.25 V 448 h 64 V 291.875 l -52.688,52.688 z M 384,232 v 216 h 64 V 198.219 L 415.844,178.938 Z M 352,448 V 241.469 l -64,-16 V 448 Z"
             inkscape:connector-curvature="0"
             style="fill:#0466a4" />
        </g>
        <g
           id="g4720" />
        <g
           id="g4722" />
        <g
           id="g4724" />
        <g
           id="g4726" />
        <g
           id="g4728" />
        <g
           id="g4730" />
        <g
           id="g4732" />
        <g
           id="g4734" />
        <g
           id="g4736" />
        <g
           id="g4738" />
        <g
           id="g4740" />
        <g
           id="g4742" />
        <g
           id="g4744" />
        <g
           id="g4746" />
        <g
           id="g4748" />
      </g>
    </g>
    <g
       id="g4648"
       transform="matrix(0.1958864,0,0,0.1632858,146.20106,264.79642)"
       style="opacity:0.5">
      <g
         id="g4592">
        <path
           id="path4590"
           d="m 158.333,300 c 0,59.831 48.502,108.333 108.333,108.333 C 326.497,408.333 375,359.831 375,300 375,240.169 326.498,191.667 266.667,191.667 206.836,191.667 158.333,240.169 158.333,300 Z M 500,116.667 H 383.333 C 375,83.333 366.667,50 333.333,50 H 200 c -33.333,0 -41.667,33.333 -50,66.667 H 33.333 C 15,116.667 0,131.667 0,150 v 300 c 0,18.333 15,33.333 33.333,33.333 H 500 c 18.333,0 33.334,-15 33.334,-33.333 V 150 C 533.333,131.667 518.333,116.667 500,116.667 Z M 266.667,447.917 C 184.975,447.917 118.75,381.693 118.75,300 c 0,-81.692 66.224,-147.917 147.917,-147.917 81.693,0 147.917,66.224 147.917,147.917 -10e-4,81.693 -66.223,147.917 -147.917,147.917 z M 500,216.667 H 433.334 V 183.334 H 500 Z"
           inkscape:connector-curvature="0"
           style="fill:#0466a4" />
      </g>
      <g
         id="g4594" />
      <g
         id="g4596" />
      <g
         id="g4598" />
      <g
         id="g4600" />
      <g
         id="g4602" />
      <g
         id="g4604" />
      <g
         id="g4606" />
      <g
         id="g4608" />
      <g
         id="g4610" />
      <g
         id="g4612" />
      <g
         id="g4614" />
      <g
         id="g4616" />
      <g
         id="g4618" />
      <g
         id="g4620" />
      <g
         id="g4622" />
    </g>
    <g
       id="g4714"
       transform="matrix(0.38563391,0,0,0.28942478,-136.87409,221.35739)"
       style="opacity:0.5">
      <g
         id="g4656">
        <g
           id="g4654">
          <path
             id="path4650"
             d="m 374.778,173.493 -118.823,-6.317 c -1.379,-0.074 -2.767,0.236 -3.987,0.894 l -65.454,35.305 c -1.988,1.073 -3.394,2.982 -3.826,5.2 -0.433,2.219 0.152,4.516 1.591,6.257 l 33.672,40.733 c 0.327,-0.247 0.661,-0.486 1.036,-0.683 z"
             inkscape:connector-curvature="0"
             style="fill:#0466a4" />
          <path
             id="path4652"
             d="m 609.246,131.32 c -0.059,-0.126 -0.12,-0.251 -0.188,-0.373 -4.695,-8.796 -15.308,-19.28 -39.184,-19.28 -25.109,0 -52.433,11.402 -53.584,11.888 -66.229,26.386 -377.957,190.42 -377.957,190.42 l -74.648,-40.22 c -2.208,-1.189 -4.857,-1.206 -7.076,-0.047 L 4.055,301.156 c -2.217,1.156 -3.716,3.337 -4.005,5.821 -0.286,2.484 0.67,4.949 2.562,6.585 L 131.043,424.59 c 2.347,2.024 5.688,2.416 8.432,0.981 l 125.416,-65.436 18.977,133.711 c 0.346,2.444 1.865,4.564 4.067,5.676 1.072,0.542 2.241,0.813 3.409,0.813 1.23,0 2.461,-0.301 3.576,-0.9 13.331,-7.169 21.652,-11.707 29.697,-16.098 8.197,-4.473 16.674,-9.099 30.389,-16.467 1.468,-0.787 2.631,-2.038 3.314,-3.555 l 89.258,-198.554 91.751,-47.902 c 42.899,-21.783 83.793,-55.696 69.917,-85.539 z"
             inkscape:connector-curvature="0"
             style="fill:#0466a4" />
        </g>
      </g>
      <g
         id="g4658" />
      <g
         id="g4660" />
      <g
         id="g4662" />
      <g
         id="g4664" />
      <g
         id="g4666" />
      <g
         id="g4668" />
      <g
         id="g4670" />
      <g
         id="g4672" />
      <g
         id="g4674" />
      <g
         id="g4676" />
      <g
         id="g4678" />
      <g
         id="g4680" />
      <g
         id="g4682" />
      <g
         id="g4684" />
      <g
         id="g4686" />
    </g>
    <g
       id="g4866"
       transform="matrix(2.9980229,0,0,2.3193262,-121.48183,-23.977382)"
       style="opacity:0.5">
      <g
         id="g4799">
        <g
           id="Layer_1_129_">
          <g
             id="g4796">
            <g
               id="g4778">
              <path
                 id="path4776"
                 d="M 20.71,15.82 C 20.943,13.288 21.841,10.95 23.228,8.973 22.1,3.848 17.527,0 12.07,0 5.77,0 0.643,5.127 0.643,11.429 c 0,5.484 3.884,10.075 9.046,11.174 2.597,-3.539 6.512,-6.04 11.021,-6.783 z M 7.499,14.149 c 0,-0.416 0.319,-0.737 0.736,-0.737 H 10.58 V 12.864 L 10.259,12.316 H 8.234 c -0.417,0 -0.736,-0.321 -0.736,-0.737 0,-0.416 0.319,-0.737 0.736,-0.737 H 9.387 L 6.893,6.742 C 6.761,6.515 6.629,6.232 6.629,5.967 c 0,-1.039 0.964,-1.379 1.624,-1.379 0.794,0 1.153,0.624 1.286,0.888 l 2.532,4.819 2.53,-4.819 c 0.135,-0.264 0.492,-0.888 1.284,-0.888 0.662,0 1.625,0.341 1.625,1.379 0,0.265 -0.132,0.548 -0.263,0.774 l -2.495,4.101 h 1.152 c 0.415,0 0.736,0.321 0.736,0.737 0,0.416 -0.321,0.737 -0.736,0.737 h -2.021 l -0.321,0.548 v 0.548 h 2.343 c 0.415,0 0.736,0.321 0.736,0.737 0,0.416 -0.321,0.737 -0.736,0.737 h -2.343 v 1.87 c 0,0.907 -0.549,1.512 -1.491,1.512 -0.945,0 -1.492,-0.605 -1.492,-1.512 v -1.87 H 8.234 c -0.417,0 -0.735,-0.321 -0.735,-0.737 z"
                 inkscape:connector-curvature="0"
                 style="fill:#0466a4" />
            </g>
            <g
               id="g4782">
              <path
                 id="path4780"
                 d="m 34.929,5.714 c -5.769,0 -10.541,4.302 -11.309,9.864 2.181,0.016 4.259,0.447 6.175,1.207 0.127,-0.292 0.389,-0.475 0.797,-0.475 h 0.396 c -0.396,-0.567 -0.566,-1.285 -0.566,-2.022 0,-2.342 2.078,-3.986 4.742,-3.986 3.31,0 4.914,1.776 4.914,3.25 0,0.851 -0.586,1.323 -1.418,1.323 -1.662,0 -0.643,-2.305 -3.193,-2.305 -1.114,0 -2.172,0.662 -2.172,1.889 0,0.643 0.32,1.285 0.623,1.852 h 2.06 c 0.774,0 1.172,0.284 1.172,0.907 0,0.623 -0.397,0.906 -1.172,0.906 h -1.494 c 0.058,0.152 0.097,0.284 0.097,0.454 0,0.305 -0.076,0.607 -0.194,0.902 0.618,0.51 1.188,1.076 1.729,1.667 0.524,0.106 0.991,0.228 1.545,0.228 0.319,0 1.098,-0.208 1.397,-0.208 0.698,0 1.096,0.529 1.096,1.208 0,1.066 -0.954,1.529 -1.937,1.593 0.652,1.095 1.195,2.259 1.596,3.49 3.861,-1.835 6.545,-5.763 6.545,-10.317 C 46.356,10.841 41.229,5.714 34.929,5.714 Z"
                 inkscape:connector-curvature="0"
                 style="fill:#0466a4" />
            </g>
            <g
               id="g4786">
              <path
                 id="path4784"
                 d="m 24.257,34.076 v 4.676 c 1.415,-0.094 2.905,-0.755 2.905,-2.314 0,-1.607 -1.633,-2.079 -2.905,-2.362 z"
                 inkscape:connector-curvature="0"
                 style="fill:#0466a4" />
            </g>
            <g
               id="g4790">
              <path
                 id="path4788"
                 d="m 20.193,28.479 c 0,1.183 0.875,1.865 2.645,2.221 v -4.229 c -1.608,0.049 -2.645,0.992 -2.645,2.008 z"
                 inkscape:connector-curvature="0"
                 style="fill:#0466a4" />
            </g>
            <g
               id="g4794">
              <path
                 id="path4792"
                 d="m 23.5,18.429 c -7.877,0 -14.287,6.409 -14.287,14.286 0,7.877 6.41,14.285 14.287,14.285 7.877,0 14.288,-6.407 14.288,-14.285 0,-7.878 -6.411,-14.286 -14.288,-14.286 z m 0.757,22.733 v 1.465 c 0,0.402 -0.31,0.803 -0.711,0.803 -0.401,0 -0.708,-0.4 -0.708,-0.803 v -1.465 c -3.99,-0.094 -5.976,-2.48 -5.976,-4.348 0,-0.942 0.566,-1.486 1.464,-1.486 2.645,0 0.589,3.26 4.512,3.425 v -4.937 c -3.498,-0.637 -5.62,-2.172 -5.62,-4.795 0,-3.211 2.668,-4.865 5.62,-4.959 v -1.258 c 0,-0.403 0.307,-0.804 0.708,-0.804 0.401,0 0.711,0.401 0.711,0.804 v 1.258 c 1.839,0.049 5.618,1.203 5.618,3.52 0,0.921 -0.686,1.462 -1.488,1.462 -1.535,0 -1.514,-2.524 -4.129,-2.573 v 4.487 c 3.118,0.662 5.879,1.582 5.879,5.222 0,3.164 -2.364,4.771 -5.88,4.982 z"
                 inkscape:connector-curvature="0"
                 style="fill:#0466a4" />
            </g>
          </g>
        </g>
      </g>
      <g
         id="g4801" />
      <g
         id="g4803" />
      <g
         id="g4805" />
      <g
         id="g4807" />
      <g
         id="g4809" />
      <g
         id="g4811" />
      <g
         id="g4813" />
      <g
         id="g4815" />
      <g
         id="g4817" />
      <g
         id="g4819" />
      <g
         id="g4821" />
      <g
         id="g4823" />
      <g
         id="g4825" />
      <g
         id="g4827" />
      <g
         id="g4829" />
    </g>
    <g
       id="g4926"
       transform="matrix(0.39078136,0,0,0.27024226,-183.10649,112.84985)"
       style="opacity:0.5">
      <g
         id="g4870">
        <path
           id="path4868"
           d="m 94.924,366.674 h 312.874 c 0.958,0 1.886,-0.136 2.778,-0.349 0.071,0 0.13,0.012 0.201,0.012 6.679,0 12.105,-5.42 12.105,-12.104 V 12.105 C 422.883,5.423 417.456,0 410.777,0 H 407.822 114.284 94.941 c -32.22,0 -58.428,26.214 -58.428,58.425 0,0.432 0.085,0.842 0.127,1.259 -0.042,29.755 -0.411,303.166 -0.042,339.109 -0.023,0.703 -0.109,1.389 -0.109,2.099 0,30.973 24.252,56.329 54.757,58.245 0.612,0.094 1.212,0.183 1.847,0.183 h 317.683 c 6.679,0 12.105,-5.42 12.105,-12.105 V 401.65 c 0,-6.68 -5.427,-12.105 -12.105,-12.105 -6.678,0 -12.105,5.426 -12.105,12.105 v 33.461 H 94.924 c -18.395,0 -33.411,-14.605 -34.149,-32.817 0.018,-0.325 0.077,-0.632 0.071,-0.963 -0.012,-0.532 -0.03,-1.359 -0.042,-2.459 1.058,-17.924 15.935,-32.198 34.12,-32.198 z m 8.254,-308.249 c 0,-6.682 5.423,-12.105 12.105,-12.105 6.682,0 12.105,5.423 12.105,12.105 V 304.31 c 0,6.679 -5.423,12.105 -12.105,12.105 -6.682,0 -12.105,-5.427 -12.105,-12.105 z"
           inkscape:connector-curvature="0"
           style="fill:#0466a4" />
      </g>
      <g
         id="g4872" />
      <g
         id="g4874" />
      <g
         id="g4876" />
      <g
         id="g4878" />
      <g
         id="g4880" />
      <g
         id="g4882" />
      <g
         id="g4884" />
      <g
         id="g4886" />
      <g
         id="g4888" />
      <g
         id="g4890" />
      <g
         id="g4892" />
      <g
         id="g4894" />
      <g
         id="g4896" />
      <g
         id="g4898" />
      <g
         id="g4900" />
    </g>
  </g>
</svg>
