<?xml version="1.0" encoding="UTF-8" standalone="no"?>
<!-- Generator: Adobe Illustrator 16.0.0, SVG Export Plug-In . SVG Version: 6.00 Build 0)  -->

<svg
   xmlns:dc="http://purl.org/dc/elements/1.1/"
   xmlns:cc="http://creativecommons.org/ns#"
   xmlns:rdf="http://www.w3.org/1999/02/22-rdf-syntax-ns#"
   xmlns:svg="http://www.w3.org/2000/svg"
   xmlns="http://www.w3.org/2000/svg"
   xmlns:sodipodi="http://sodipodi.sourceforge.net/DTD/sodipodi-0.dtd"
   xmlns:inkscape="http://www.inkscape.org/namespaces/inkscape"
   version="1.1"
   id="Capa_1"
   x="0px"
   y="0px"
   width="824.40558"
   height="736.75433"
   viewBox="0 0 657.95938 588.00479"
   xml:space="preserve"
   sodipodi:docname="scroll.svg"
   inkscape:version="0.92.1 r15371"><metadata
     id="metadata6112"><rdf:RDF><cc:Work
         rdf:about=""><dc:format>image/svg+xml</dc:format><dc:type
           rdf:resource="http://purl.org/dc/dcmitype/StillImage" /></cc:Work></rdf:RDF></metadata><defs
     id="defs6110" /><sodipodi:namedview
     pagecolor="#ffffff"
     bordercolor="#666666"
     borderopacity="1"
     objecttolerance="10"
     gridtolerance="10"
     guidetolerance="10"
     inkscape:pageopacity="0"
     inkscape:pageshadow="2"
     inkscape:window-width="1366"
     inkscape:window-height="705"
     id="namedview6108"
     showgrid="false"
     inkscape:zoom="0.4609375"
     inkscape:cx="305.8983"
     inkscape:cy="419.36024"
     inkscape:window-x="-8"
     inkscape:window-y="-8"
     inkscape:window-maximized="1"
     inkscape:current-layer="Capa_1" /><g
     id="g6075"
     style="opacity:0.5"
     transform="matrix(1.6101711,0,0,1.4475746,0,-1.7573556)"><path
       d="m 376.793,1.214 c 0,0 -0.006,0 -0.012,0 H 53.341 c -15.016,0 -27.236,12.221 -27.236,27.237 V 318.64 h 0.088 c 0.443,4.699 4.268,8.382 8.99,8.382 4.72,0 8.544,-3.683 8.987,-8.382 h 0.092 V 28.451 c 0,-5.004 4.072,-9.079 9.079,-9.079 h 278.418 c 5.006,0 9.079,4.075 9.079,9.079 v 351.726 c 0,5.001 -4.073,9.079 -9.079,9.079 h -36.315 c -3.328,-1.431 -16.716,-7.797 -16.716,-17.638 0,-11.325 17.46,-18.353 17.602,-18.406 4.103,-1.542 6.514,-5.804 5.734,-10.119 -0.793,-4.315 -4.552,-7.459 -8.938,-7.459 H 35.775 C 16.044,335.634 0,351.682 0,371.411 c 0,19.736 16.044,35.778 35.775,35.778 h 247.563 c -0.012,0.07 -0.012,0.142 -0.029,0.225 h 48.45 c 15.02,0 27.236,-12.224 27.236,-27.237 V 31.823 c 0.131,-12.788 15.688,-12.451 17.449,-12.451 h 0.07 c 7.696,0 13.956,6.26 13.956,13.952 0,7.693 -6.26,13.958 -13.956,13.958 -5.012,0 -9.078,4.061 -9.078,9.079 0,5.016 4.066,9.079 9.078,9.079 17.709,0 32.113,-14.407 32.113,-32.116 10e-4,-17.702 -14.403,-32.11 -31.834,-32.11 z M 266.197,389.031 H 35.775 c -9.714,0 -17.617,-7.908 -17.617,-17.62 0,-9.711 7.903,-17.62 17.617,-17.62 h 230.658 c -3.451,4.859 -5.863,10.775 -5.863,17.827 0.006,6.892 2.305,12.667 5.627,17.413 z"
       id="path6073"
       style="fill:#0466a4"
       inkscape:connector-curvature="0" /></g><g
     id="g6077"
     transform="translate(39.823915,48.998763)" /><g
     id="g6079"
     transform="translate(39.823915,48.998763)" /><g
     id="g6081"
     transform="translate(39.823915,48.998763)" /><g
     id="g6083"
     transform="translate(39.823915,48.998763)" /><g
     id="g6085"
     transform="translate(39.823915,48.998763)" /><g
     id="g6087"
     transform="translate(39.823915,48.998763)" /><g
     id="g6089"
     transform="translate(39.823915,48.998763)" /><g
     id="g6091"
     transform="translate(39.823915,48.998763)" /><g
     id="g6093"
     transform="translate(39.823915,48.998763)" /><g
     id="g6095"
     transform="translate(39.823915,48.998763)" /><g
     id="g6097"
     transform="translate(39.823915,48.998763)" /><g
     id="g6099"
     transform="translate(39.823915,48.998763)" /><g
     id="g6101"
     transform="translate(39.823915,48.998763)" /><g
     id="g6103"
     transform="translate(39.823915,48.998763)" /><g
     id="g6105"
     transform="translate(39.823915,48.998763)" /><g
     id="g4567"
     transform="matrix(1.8226478,0,0,1.5727578,401.70102,362.88416)"
     style="opacity:0.5"><g
       id="g4510"
       style=""><g
         id="g4508"
         style=""><path
           id="path4506"
           d="M 14.579,5 C 6.527,5 0,11.716 0,20 0,28.285 6.527,35 14.579,35 29.157,35 19.438,64 0,64 v 7 C 34.69,71 48.286,5 14.579,5 Z m 42,0 C 48.527,5 42,11.716 42,20 42,28.285 48.527,35 56.579,35 71.157,35 61.438,64 42,64 v 7 C 76.69,71 90.286,5 56.579,5 Z"
           inkscape:connector-curvature="0"
           style="fill:#0466a4" /></g></g><g
       id="g4512"
       style="" /><g
       id="g4514"
       style="" /><g
       id="g4516"
       style="" /><g
       id="g4518"
       style="" /><g
       id="g4520"
       style="" /><g
       id="g4522"
       style="" /><g
       id="g4524"
       style="" /><g
       id="g4526"
       style="" /><g
       id="g4528"
       style="" /><g
       id="g4530"
       style="" /><g
       id="g4532"
       style="" /><g
       id="g4534"
       style="" /><g
       id="g4536"
       style="" /><g
       id="g4538"
       style="" /><g
       id="g4540"
       style="" /></g><g
     style="opacity:0.5"
     transform="matrix(-1.8453731,0,0,1.5727578,218.16471,33.903989)"
     id="g4605"><g
       id="g4573"><g
         id="g4571"><path
           style="fill:#0466a4"
           inkscape:connector-curvature="0"
           d="M 14.579,5 C 6.527,5 0,11.716 0,20 0,28.285 6.527,35 14.579,35 29.157,35 19.438,64 0,64 v 7 C 34.69,71 48.286,5 14.579,5 Z m 42,0 C 48.527,5 42,11.716 42,20 42,28.285 48.527,35 56.579,35 71.157,35 61.438,64 42,64 v 7 C 76.69,71 90.286,5 56.579,5 Z"
           id="path4569" /></g></g><g
       id="g4575" /><g
       id="g4577" /><g
       id="g4579" /><g
       id="g4581" /><g
       id="g4583" /><g
       id="g4585" /><g
       id="g4587" /><g
       id="g4589" /><g
       id="g4591" /><g
       id="g4593" /><g
       id="g4595" /><g
       id="g4597" /><g
       id="g4599" /><g
       id="g4601" /><g
       id="g4603" /></g></svg>